#!OML:ASF E:\Steps\Project 1\Capture day 1\Session 2\Subject.ASF
:FULLY-SPECIFIED
:DEGREES
267
root 7.50499 16.2246 23.9043 -157.265 -0.738602 178.7
lowerback -22.0941 -2.02109 -6.2589
upperback 1.04398 -1.11231 -0.623682
thorax 13.7859 -1.00663 2.48143
lowerneck -1.54365 -2.80262 -1.98936
upperneck 15.8129 -3.43441 4.38237
head 5.10909 -1.18323 1.55416
rclavicle 1.03368e-014 3.06128e-014
rhumerus -40.084 -23.2611 -70.1048
rradius 27.4738
rwrist 6.18348
rhand -7.97787 -55.3618
rfingers 7.12502
rthumb 17.9301 -84.5553
lclavicle 1.03368e-014 3.06128e-014
lhumerus -22.7438 1.63744 83.4112
lradius 27.5304
lwrist 0.345222
lhand -20.6891 -14.5941
lfingers 7.12502
lthumb 5.67454 15.31
rfemur -50.1229 0.448212 18.1387
rtibia 44.7209
rfoot -17.2036 -15.3638
rtoes -40.1606
lfemur -22.0715 -8.77872 -22.93
ltibia 14.3254
lfoot -12.0641 0.30716
ltoes -34.1404
268
root 7.50719 16.2237 23.8113 -157.281 -1.03701 178.754
lowerback -21.889 -2.14119 -6.20567
upperback 1.01059 -1.31193 -0.526902
thorax 13.6487 -1.09282 2.49858
lowerneck -1.61684 -2.78246 -2.05743
upperneck 15.9099 -3.42506 4.58326
head 5.15539 -1.16448 1.62831
rclavicle -4.57205e-015 -1.74931e-014
rhumerus -40.5662 -23.1948 -69.9576
rradius 27.4859
rwrist 6.41018
rhand -7.66014 -55.2817
rfingers 7.12502
rthumb 18.2358 -84.4468
lclavicle -4.57205e-015 -1.74931e-014
lhumerus -22.7685 0.968985 83.6146
lradius 28.4834
lwrist 0.996218
lhand -20.6418 -14.906
lfingers 7.12502
lthumb 5.7202 14.9968
rfemur -50.0014 0.482761 17.8647
rtibia 42.1261
rfoot -16.9455 -15.3125
rtoes -40.4042
lfemur -21.6055 -8.84906 -22.8541
ltibia 14.1298
lfoot -12.2793 0.0327089
ltoes -33.6147
269
root 7.51059 16.222 23.7196 -157.263 -1.3798 178.754
lowerback -21.6709 -2.23418 -6.13284
upperback 0.977632 -1.47253 -0.517882
thorax 13.4978 -1.15683 2.41855
lowerneck -1.95951 -2.6556 -1.66735
upperneck 16.3686 -3.21699 4.25196
head 5.33749 -1.03888 1.46976
rclavicle -1.47101e-014 -2.62396e-014
rhumerus -41.1635 -22.964 -70.0714
rradius 27.8007
rwrist 6.21932
rhand -7.40078 -55.5074
rfingers 7.12502
rthumb 18.4853 -84.6491
lclavicle -1.47101e-014 -2.62396e-014
lhumerus -22.8078 -0.497042 84.0007
lradius 29.0898
lwrist -0.08931
lhand -23.0682 -15.0538
lfingers 7.12502
lthumb 3.37727 14.8992
rfemur -49.872 0.592352 17.5024
rtibia 39.5131
rfoot -16.4943 -15.4207
rtoes -40.8246
lfemur -21.2188 -8.95833 -22.8085
ltibia 14.0353
lfoot -12.536 -0.301478
ltoes -32.9571
270
root 7.51627 16.2134 23.6187 -157.186 -1.61325 178.75
lowerback -21.8404 -2.31866 -6.07302
upperback 1.04585 -1.58311 -0.506215
thorax 13.6847 -1.20741 2.35566
lowerneck -1.92949 -2.81935 -1.55181
upperneck 16.1621 -3.46094 4.22243
head 5.27362 -1.16532 1.42735
rclavicle -1.59028e-015 2.34566e-014
rhumerus -41.4783 -23.103 -70.0276
rradius 27.8029
rwrist 6.43981
rhand -7.28184 -55.8923
rfingers 7.12502
rthumb 18.5997 -85.0231
lclavicle -1.59028e-015 2.34566e-014
lhumerus -22.4662 -0.905068 83.9859
lradius 30.0157
lwrist 0.381155
lhand -22.4866 -15.4789
lfingers 7.12502
lthumb 3.93884 14.4644
rfemur -49.7301 0.731781 17.1766
rtibia 36.8475
rfoot -15.9008 -15.6031
rtoes -42.2047
lfemur -20.7435 -9.06515 -22.7767
ltibia 13.728
lfoot -12.6769 -0.49819
ltoes -32.4255
271
root 7.52209 16.2052 23.522 -157.076 -1.92814 178.643
lowerback -22.21 -2.47811 -6.0761
upperback 1.22062 -1.75294 -0.501825
thorax 14.1215 -1.29419 2.29203
lowerneck -1.80024 -2.97761 -1.70017
upperneck 15.6835 -3.74572 4.60903
head 5.12175 -1.31377 1.55678
rclavicle 0 5.56597e-015
rhumerus -41.4754 -23.3672 -70.0789
rradius 27.72
rwrist 6.25155
rhand -8.20445 -56.4757
rfingers 7.12502
rthumb 17.7121 -85.689
lclavicle 0 5.56597e-015
lhumerus -22.0889 -1.33603 84.0208
lradius 30.5967
lwrist -0.936964
lhand -22.966 -14.6214
lfingers 7.12502
lthumb 3.4759 15.33
rfemur -49.5648 0.632436 16.7796
rtibia 34.1393
rfoot -15.354 -15.3382
rtoes -43.0349
lfemur -20.3291 -9.1796 -22.8461
ltibia 13.4267
lfoot -12.7021 -0.776707
ltoes -32.0196
272
root 7.52375 16.1939 23.4199 -157.056 -2.14518 178.586
lowerback -22.7504 -2.55945 -5.9273
upperback 1.53326 -1.82773 -0.563382
thorax 14.8074 -1.3264 2.08948
lowerneck -2.07035 -2.94718 -1.61629
upperneck 15.6793 -3.74384 4.74944
head 5.16715 -1.30141 1.58302
rclavicle -1.27222e-014 -9.54166e-015
rhumerus -41.3088 -23.6422 -70.3639
rradius 27.6941
rwrist 5.23205
rhand -9.31686 -56.3928
rfingers 7.12502
rthumb 16.6414 -85.6994
lclavicle -1.27222e-014 -9.54166e-015
lhumerus -21.3948 -1.32785 83.8472
lradius 31.782
lwrist 0.415424
lhand -19.4825 -11.9457
lfingers 7.12502
lthumb 6.83937 17.9238
rfemur -49.3265 0.726178 16.3195
rtibia 31.5372
rfoot -14.9842 -14.5775
rtoes -42.3003
lfemur -19.7883 -9.20801 -22.9378
ltibia 13.1627
lfoot -12.7594 -0.91101
ltoes -32.2322
273
root 7.53115 16.1819 23.3114 -157.116 -2.28815 178.565
lowerback -21.8524 -2.63029 -6.07572
upperback 0.992066 -2.01331 -0.392833
thorax 13.6733 -1.40808 2.34144
lowerneck -1.65772 -3.1251 -1.68821
upperneck 15.9378 -3.92271 4.61791
head 5.18221 -1.38265 1.5517
rclavicle -8.74653e-015 7.95139e-015
rhumerus -42.5631 -22.9802 -69.98
rradius 27.8397
rwrist 5.2656
rhand -7.54073 -56.3512
rfingers 7.12502
rthumb 18.3507 -85.5056
lclavicle -8.74653e-015 7.95139e-015
lhumerus -22.2951 -1.60952 84.1296
lradius 32.4883
lwrist 1.15588
lhand -18.8849 -12.9546
lfingers 7.12502
lthumb 7.41622 16.8954
rfemur -48.9798 1.16585 15.814
rtibia 29.0688
rfoot -14.7626 -14.0488
rtoes -40.817
lfemur -19.1101 -9.18204 -22.9856
ltibia 12.8841
lfoot -13.0086 -1.08088
ltoes -31.2363
274
root 7.54259 16.1713 23.2097 -157.066 -2.59594 178.5
lowerback -22.6811 -2.8182 -6.0646
upperback 1.50108 -2.16166 -0.388368
thorax 14.773 -1.49454 2.25316
lowerneck -1.91088 -2.93682 -1.5688
upperneck 15.5491 -3.71581 4.61744
head 5.09568 -1.30001 1.53698
rclavicle -7.15625e-015 -2.78299e-014
rhumerus -42.0681 -24.1126 -69.7618
rradius 27.3974
rwrist 6.62271
rhand -7.43833 -56.7775
rfingers 7.12502
rthumb 18.4492 -85.9226
lclavicle -7.15625e-015 -2.78299e-014
lhumerus -21.3217 -2.18487 84.1361
lradius 32.655
lwrist 1.39325
lhand -19.5158 -14.7258
lfingers 7.12502
lthumb 6.80721 15.1447
rfemur -48.6446 1.56359 15.2515
rtibia 26.5216
rfoot -14.5425 -13.9396
rtoes -40.5578
lfemur -18.6692 -9.2116 -22.9725
ltibia 12.6829
lfoot -13.1811 -1.46346
ltoes -29.1778
275
root 7.55166 16.1616 23.1042 -157.229 -2.78236 178.453
lowerback -22.5661 -2.90875 -6.06534
upperback 1.58426 -2.28472 -0.354872
thorax 14.8194 -1.55129 2.25014
lowerneck -2.06402 -2.99627 -1.6747
upperneck 15.6553 -3.80979 4.73773
head 5.16183 -1.34064 1.58535
rclavicle -1.98785e-016 1.27222e-014
rhumerus -42.3893 -24.6109 -69.3762
rradius 27.2137
rwrist 7.18033
rhand -6.15505 -56.9978
rfingers 7.12502
rthumb 19.6833 -86.0213
lclavicle -1.98785e-016 1.27222e-014
lhumerus -21.2398 -2.63462 84.2033
lradius 32.9945
lwrist 1.1927
lhand -19.8806 -15.6046
lfingers 7.12502
lthumb 6.45506 14.277
rfemur -48.0293 2.06494 14.7339
rtibia 23.9316
rfoot -14.2132 -13.6805
rtoes -41.3876
lfemur -17.923 -9.0587 -23.0373
ltibia 12.371
lfoot -13.2517 -1.77265
ltoes -29.2749
276
root 7.56065 16.1473 22.9997 -157.248 -3.01797 178.335
lowerback -22.9268 -3.06598 -6.19725
upperback 1.8555 -2.41647 -0.288162
thorax 15.381 -1.63438 2.33644
lowerneck -2.43102 -2.90486 -1.81392
upperneck 15.764 -3.70044 4.79854
head 5.25776 -1.29028 1.62866
rclavicle -3.47873e-014 -1.78906e-014
rhumerus -42.3295 -24.7903 -69.4538
rradius 27.338
rwrist 7.0834
rhand -9.62686 -59.1884
rfingers 7.12502
rthumb 16.3429 -88.5198
lclavicle -3.47873e-014 -1.78906e-014
lhumerus -20.704 -2.87342 84.27
lradius 33.1982
lwrist 0.77337
lhand -20.2164 -16.5867
lfingers 7.12502
lthumb 6.13088 13.3046
rfemur -47.6186 2.46871 14.1085
rtibia 21.5266
rfoot -13.7366 -13.4045
rtoes -41.34
lfemur -17.4029 -9.06704 -23.1458
ltibia 12.2612
lfoot -13.4392 -1.97843
ltoes -30.2032
277
root 7.57102 16.1298 22.8898 -157.203 -3.31534 178.3
lowerback -22.791 -3.15533 -6.0146
upperback 1.66076 -2.60592 -0.354183
thorax 15.0706 -1.69587 2.09664
lowerneck -2.21684 -3.06734 -1.77911
upperneck 15.8362 -3.93284 5.00444
head 5.255 -1.38037 1.67806
rclavicle 5.1684e-015 1.66979e-014
rhumerus -43.1604 -24.7154 -69.4727
rradius 27.5745
rwrist 6.80863
rhand -7.87002 -56.9914
rfingers 7.12502
rthumb 18.0339 -86.1753
lclavicle 5.1684e-015 1.66979e-014
lhumerus -20.9606 -3.16432 84.1093
lradius 33.3166
lwrist 0.345201
lhand -20.8045 -17.8673
lfingers 7.12502
lthumb 5.56309 12.0397
rfemur -47.1924 2.80474 13.6025
rtibia 19.2432
rfoot -13.5964 -13.2195
rtoes -40.7084
lfemur -16.9819 -9.11811 -23.107
ltibia 12.2806
lfoot -13.6345 -2.21531
ltoes -29.7431
278
root 7.58148 16.1117 22.7762 -157.245 -3.49384 178.341
lowerback -23.0249 -3.22926 -5.92301
upperback 1.78181 -2.71111 -0.283145
thorax 15.3625 -1.74265 2.0766
lowerneck -2.30336 -3.19343 -1.72066
upperneck 15.9091 -4.09595 4.87232
head 5.2947 -1.46393 1.61703
rclavicle -3.22031e-014 -1.03368e-014
rhumerus -43.2403 -24.8326 -69.5139
rradius 27.5933
rwrist 6.36008
rhand -7.23771 -56.1471
rfingers 7.12502
rthumb 18.6422 -85.2738
lclavicle -3.22031e-014 -1.03368e-014
lhumerus -20.6616 -3.31763 84.1333
lradius 33.3639
lwrist -0.00298245
lhand -21.252 -18.682
lfingers 7.12502
lthumb 5.131 11.2359
rfemur -46.6739 3.20379 13.2681
rtibia 17.0881
rfoot -13.5219 -13.0928
rtoes -41.0673
lfemur -16.431 -9.10859 -23.0151
ltibia 12.2186
lfoot -13.7787 -2.35043
ltoes -29.4635
279
root 7.59184 16.093 22.6608 -157.259 -3.53618 178.368
lowerback -23.4063 -3.28126 -5.90599
upperback 1.96497 -2.75527 -0.190267
thorax 15.8178 -1.77205 2.13931
lowerneck -2.38769 -3.10118 -1.66982
upperneck 15.8029 -3.95163 4.59528
head 5.26493 -1.41775 1.52807
rclavicle -2.44505e-014 -9.54166e-015
rhumerus -43.1374 -24.9192 -69.5506
rradius 27.5777
rwrist 5.9304
rhand -7.18981 -55.863
rfingers 7.12502
rthumb 18.6883 -84.9852
lclavicle -2.44505e-014 -9.54166e-015
lhumerus -20.3152 -3.43414 84.2033
lradius 33.5306
lwrist -0.161047
lhand -21.5126 -18.9905
lfingers 7.12502
lthumb 4.87938 10.9333
rfemur -46.5988 3.28374 13.2705
rtibia 15.8437
rfoot -13.5638 -12.5737
rtoes -41.5191
lfemur -15.8952 -8.93395 -23.0001
ltibia 12.1694
lfoot -13.9674 -2.46809
ltoes -30.8528
